<mxfile host="app.diagrams.net" modified="2022-06-21T08:51:38.314Z" agent="5.0 (Windows NT 10.0; Win64; x64) AppleWebKit/537.36 (KHTML, like Gecko) Chrome/102.0.0.0 Safari/537.36" etag="CKXjV8Vq4XLXdAOhrfWa" version="20.0.1" type="github">
  <diagram id="C5RBs43oDa-KdzZeNtuy" name="Page-1">
    <mxGraphModel dx="1865" dy="1748" grid="1" gridSize="10" guides="1" tooltips="1" connect="1" arrows="1" fold="1" page="1" pageScale="1" pageWidth="827" pageHeight="1169" math="0" shadow="0">
      <root>
        <mxCell id="WIyWlLk6GJQsqaUBKTNV-0" />
        <mxCell id="WIyWlLk6GJQsqaUBKTNV-1" parent="WIyWlLk6GJQsqaUBKTNV-0" />
        <mxCell id="Q8TZn7RBIf1q1gjqgfK8-6" style="edgeStyle=orthogonalEdgeStyle;rounded=0;orthogonalLoop=1;jettySize=auto;html=1;exitX=0.5;exitY=1;exitDx=0;exitDy=0;entryX=0.5;entryY=0;entryDx=0;entryDy=0;" edge="1" parent="WIyWlLk6GJQsqaUBKTNV-1" source="Q8TZn7RBIf1q1gjqgfK8-0">
          <mxGeometry relative="1" as="geometry">
            <mxPoint x="414" y="110" as="targetPoint" />
          </mxGeometry>
        </mxCell>
        <mxCell id="Q8TZn7RBIf1q1gjqgfK8-0" value="&lt;h1&gt;slime_adventure&lt;/h1&gt;&lt;p&gt;턴제 게임 / 스테이지 방식&lt;/p&gt;&lt;p&gt;점수 획득 후 용사와 몬스터는 다음 스테이지에서 더 강해진다.&lt;/p&gt;&lt;p&gt;최종 목표는 최종 스테이지까지&amp;nbsp;&lt;/p&gt;&lt;p&gt;깨는 것&lt;/p&gt;" style="text;html=1;strokeColor=#d6b656;fillColor=#fff2cc;spacing=5;spacingTop=-20;whiteSpace=wrap;overflow=hidden;rounded=0;" vertex="1" parent="WIyWlLk6GJQsqaUBKTNV-1">
          <mxGeometry x="309" y="-90" width="210" height="160" as="geometry" />
        </mxCell>
        <mxCell id="Q8TZn7RBIf1q1gjqgfK8-7" value="1.새 게임 / 2. 불러오기 / 3. 종료하기" style="rhombus;whiteSpace=wrap;html=1;fillColor=#f8cecc;strokeColor=#b85450;" vertex="1" parent="WIyWlLk6GJQsqaUBKTNV-1">
          <mxGeometry x="284" y="110" width="260" height="130" as="geometry" />
        </mxCell>
        <mxCell id="Q8TZn7RBIf1q1gjqgfK8-12" value="게임 종료" style="rounded=0;whiteSpace=wrap;html=1;" vertex="1" parent="WIyWlLk6GJQsqaUBKTNV-1">
          <mxGeometry x="660" y="145" width="120" height="60" as="geometry" />
        </mxCell>
        <mxCell id="Q8TZn7RBIf1q1gjqgfK8-14" value="" style="endArrow=classic;html=1;rounded=0;entryX=0;entryY=0.5;entryDx=0;entryDy=0;exitX=1;exitY=0.5;exitDx=0;exitDy=0;" edge="1" parent="WIyWlLk6GJQsqaUBKTNV-1" source="Q8TZn7RBIf1q1gjqgfK8-7" target="Q8TZn7RBIf1q1gjqgfK8-12">
          <mxGeometry relative="1" as="geometry">
            <mxPoint x="360" y="300" as="sourcePoint" />
            <mxPoint x="460" y="300" as="targetPoint" />
            <Array as="points" />
          </mxGeometry>
        </mxCell>
        <mxCell id="Q8TZn7RBIf1q1gjqgfK8-15" value="3번 선택" style="edgeLabel;resizable=0;html=1;align=center;verticalAlign=middle;" connectable="0" vertex="1" parent="Q8TZn7RBIf1q1gjqgfK8-14">
          <mxGeometry relative="1" as="geometry" />
        </mxCell>
        <mxCell id="Q8TZn7RBIf1q1gjqgfK8-18" value="while(true)" style="text;strokeColor=none;fillColor=none;align=center;verticalAlign=middle;spacingLeft=4;spacingRight=4;overflow=hidden;points=[[0,0.5],[1,0.5]];portConstraint=eastwest;rotatable=0;" vertex="1" parent="WIyWlLk6GJQsqaUBKTNV-1">
          <mxGeometry x="374" y="130" width="80" height="30" as="geometry" />
        </mxCell>
        <mxCell id="Q8TZn7RBIf1q1gjqgfK8-19" value="" style="endArrow=classic;html=1;rounded=0;exitX=0.5;exitY=1;exitDx=0;exitDy=0;" edge="1" parent="WIyWlLk6GJQsqaUBKTNV-1" source="Q8TZn7RBIf1q1gjqgfK8-7">
          <mxGeometry relative="1" as="geometry">
            <mxPoint x="330" y="200" as="sourcePoint" />
            <mxPoint x="414" y="310" as="targetPoint" />
          </mxGeometry>
        </mxCell>
        <mxCell id="Q8TZn7RBIf1q1gjqgfK8-20" value="1번 선택" style="edgeLabel;resizable=0;html=1;align=center;verticalAlign=middle;" connectable="0" vertex="1" parent="Q8TZn7RBIf1q1gjqgfK8-19">
          <mxGeometry relative="1" as="geometry" />
        </mxCell>
        <mxCell id="Q8TZn7RBIf1q1gjqgfK8-21" value="if문" style="edgeLabel;resizable=0;html=1;align=center;verticalAlign=bottom;" connectable="0" vertex="1" parent="Q8TZn7RBIf1q1gjqgfK8-19">
          <mxGeometry x="-1" relative="1" as="geometry" />
        </mxCell>
        <mxCell id="Q8TZn7RBIf1q1gjqgfK8-22" value="ArrayList 저장하기" style="swimlane;fontStyle=0;childLayout=stackLayout;horizontal=1;startSize=30;horizontalStack=0;resizeParent=1;resizeParentMax=0;resizeLast=0;collapsible=1;marginBottom=0;" vertex="1" parent="WIyWlLk6GJQsqaUBKTNV-1">
          <mxGeometry x="60" y="100" width="140" height="120" as="geometry" />
        </mxCell>
        <mxCell id="Q8TZn7RBIf1q1gjqgfK8-23" value="용사 1" style="text;strokeColor=#666666;fillColor=#f5f5f5;align=left;verticalAlign=middle;spacingLeft=4;spacingRight=4;overflow=hidden;points=[[0,0.5],[1,0.5]];portConstraint=eastwest;rotatable=0;fontColor=#333333;" vertex="1" parent="Q8TZn7RBIf1q1gjqgfK8-22">
          <mxGeometry y="30" width="140" height="30" as="geometry" />
        </mxCell>
        <mxCell id="Q8TZn7RBIf1q1gjqgfK8-24" value="새로 저장하기" style="text;strokeColor=none;fillColor=none;align=left;verticalAlign=middle;spacingLeft=4;spacingRight=4;overflow=hidden;points=[[0,0.5],[1,0.5]];portConstraint=eastwest;rotatable=0;" vertex="1" parent="Q8TZn7RBIf1q1gjqgfK8-22">
          <mxGeometry y="60" width="140" height="30" as="geometry" />
        </mxCell>
        <mxCell id="Q8TZn7RBIf1q1gjqgfK8-25" value="새로 저장하기" style="text;strokeColor=none;fillColor=none;align=left;verticalAlign=middle;spacingLeft=4;spacingRight=4;overflow=hidden;points=[[0,0.5],[1,0.5]];portConstraint=eastwest;rotatable=0;" vertex="1" parent="Q8TZn7RBIf1q1gjqgfK8-22">
          <mxGeometry y="90" width="140" height="30" as="geometry" />
        </mxCell>
        <mxCell id="Q8TZn7RBIf1q1gjqgfK8-28" value="" style="endArrow=classic;html=1;rounded=0;exitX=0;exitY=0.5;exitDx=0;exitDy=0;entryX=1;entryY=0.5;entryDx=0;entryDy=0;" edge="1" parent="WIyWlLk6GJQsqaUBKTNV-1" source="Q8TZn7RBIf1q1gjqgfK8-7" target="Q8TZn7RBIf1q1gjqgfK8-24">
          <mxGeometry relative="1" as="geometry">
            <mxPoint x="360" y="200" as="sourcePoint" />
            <mxPoint x="460" y="200" as="targetPoint" />
          </mxGeometry>
        </mxCell>
        <mxCell id="Q8TZn7RBIf1q1gjqgfK8-29" value="2번 선택" style="edgeLabel;resizable=0;html=1;align=center;verticalAlign=middle;" connectable="0" vertex="1" parent="Q8TZn7RBIf1q1gjqgfK8-28">
          <mxGeometry relative="1" as="geometry" />
        </mxCell>
        <mxCell id="Q8TZn7RBIf1q1gjqgfK8-87" value="용사 1" style="swimlane;" vertex="1" parent="WIyWlLk6GJQsqaUBKTNV-1">
          <mxGeometry x="-220" y="50" width="200" height="200" as="geometry" />
        </mxCell>
        <mxCell id="Q8TZn7RBIf1q1gjqgfK8-91" value="용사의 현재 상태" style="text;strokeColor=none;fillColor=none;align=left;verticalAlign=middle;spacingLeft=4;spacingRight=4;overflow=hidden;points=[[0,0.5],[1,0.5]];portConstraint=eastwest;rotatable=0;" vertex="1" parent="Q8TZn7RBIf1q1gjqgfK8-87">
          <mxGeometry y="60" width="200" height="30" as="geometry" />
        </mxCell>
        <mxCell id="Q8TZn7RBIf1q1gjqgfK8-92" value="용사의 가방 상태" style="text;strokeColor=none;fillColor=none;align=left;verticalAlign=middle;spacingLeft=4;spacingRight=4;overflow=hidden;points=[[0,0.5],[1,0.5]];portConstraint=eastwest;rotatable=0;" vertex="1" parent="Q8TZn7RBIf1q1gjqgfK8-87">
          <mxGeometry y="90" width="200" height="30" as="geometry" />
        </mxCell>
        <mxCell id="Q8TZn7RBIf1q1gjqgfK8-93" value="달성한 스테이지" style="text;strokeColor=none;fillColor=none;align=left;verticalAlign=middle;spacingLeft=4;spacingRight=4;overflow=hidden;points=[[0,0.5],[1,0.5]];portConstraint=eastwest;rotatable=0;" vertex="1" parent="Q8TZn7RBIf1q1gjqgfK8-87">
          <mxGeometry y="30" width="200" height="30" as="geometry" />
        </mxCell>
        <mxCell id="Q8TZn7RBIf1q1gjqgfK8-94" value="용사의 일행" style="text;strokeColor=none;fillColor=none;align=left;verticalAlign=middle;spacingLeft=4;spacingRight=4;overflow=hidden;points=[[0,0.5],[1,0.5]];portConstraint=eastwest;rotatable=0;" vertex="1" parent="Q8TZn7RBIf1q1gjqgfK8-87">
          <mxGeometry y="120" width="200" height="30" as="geometry" />
        </mxCell>
        <mxCell id="Q8TZn7RBIf1q1gjqgfK8-88" value="" style="endArrow=classic;html=1;rounded=0;entryX=0.999;entryY=0.048;entryDx=0;entryDy=0;entryPerimeter=0;exitX=0;exitY=0.5;exitDx=0;exitDy=0;" edge="1" parent="WIyWlLk6GJQsqaUBKTNV-1" source="Q8TZn7RBIf1q1gjqgfK8-23" target="Q8TZn7RBIf1q1gjqgfK8-87">
          <mxGeometry width="50" height="50" relative="1" as="geometry">
            <mxPoint x="50" y="140" as="sourcePoint" />
            <mxPoint x="80" y="170" as="targetPoint" />
          </mxGeometry>
        </mxCell>
        <mxCell id="Q8TZn7RBIf1q1gjqgfK8-96" value="용사의 이름을 정해주세요" style="rounded=0;whiteSpace=wrap;html=1;" vertex="1" parent="WIyWlLk6GJQsqaUBKTNV-1">
          <mxGeometry x="336" y="310" width="156" height="60" as="geometry" />
        </mxCell>
      </root>
    </mxGraphModel>
  </diagram>
</mxfile>
